<svg xmlns="http://www.w3.org/2000/svg" xmlns:xlink="http://www.w3.org/1999/xlink" width="512" zoomAndPan="magnify" viewBox="0 0 384 383.999986" height="512" preserveAspectRatio="xMidYMid meet" version="1.0"><defs><g/><clipPath id="eca7a31ac5"><path d="M 4.238281 246.109375 L 380 246.109375 L 380 345.601562 L 4.238281 345.601562 Z M 4.238281 246.109375 " clip-rule="nonzero"/></clipPath><clipPath id="faa9c62e01"><path d="M 192 246.109375 C 88.300781 246.109375 4.238281 268.378906 4.238281 295.855469 C 4.238281 323.328125 88.300781 345.601562 192 345.601562 C 295.699219 345.601562 379.761719 323.328125 379.761719 295.855469 C 379.761719 268.378906 295.699219 246.109375 192 246.109375 Z M 192 246.109375 " clip-rule="nonzero"/></clipPath><clipPath id="d00025e2c1"><path d="M 0.238281 0.109375 L 375.921875 0.109375 L 375.921875 99.601562 L 0.238281 99.601562 Z M 0.238281 0.109375 " clip-rule="nonzero"/></clipPath><clipPath id="37c0891048"><path d="M 188 0.109375 C 84.300781 0.109375 0.238281 22.378906 0.238281 49.855469 C 0.238281 77.328125 84.300781 99.601562 188 99.601562 C 291.699219 99.601562 375.761719 77.328125 375.761719 49.855469 C 375.761719 22.378906 291.699219 0.109375 188 0.109375 Z M 188 0.109375 " clip-rule="nonzero"/></clipPath><clipPath id="fb01d67eaf"><rect x="0" width="376" y="0" height="100"/></clipPath><clipPath id="c8f20fc039"><path d="M 13 39 L 380 39 L 380 292 L 13 292 Z M 13 39 " clip-rule="nonzero"/></clipPath><clipPath id="beec6b641e"><path d="M 0 51.78125 L 366.113281 24.945312 L 384 269.023438 L 17.886719 295.855469 Z M 0 51.78125 " clip-rule="nonzero"/></clipPath><clipPath id="9cf7edb787"><path d="M 165.625 39.640625 C 231.933594 34.78125 293.96875 83.070312 296.199219 148.535156 L 309.371094 147.570312 C 345.476562 144.921875 376.820312 171.039062 379.375 205.898438 C 381.925781 240.757812 354.730469 271.167969 318.625 273.8125 L 83.265625 291.0625 C 47.160156 293.707031 15.820312 267.589844 13.261719 232.730469 C 11.242188 205.148438 27.855469 180.359375 52.765625 169.898438 C 43.101562 103.761719 97.925781 44.601562 165.625 39.640625 Z M 165.625 39.640625 " clip-rule="nonzero"/></clipPath><clipPath id="bec680d3f1"><path d="M 0 0 L 367 0 L 367 253 L 0 253 Z M 0 0 " clip-rule="nonzero"/></clipPath><clipPath id="c778731da6"><path d="M -13 12.78125 L 353.113281 -14.054688 L 371 230.023438 L 4.886719 256.855469 Z M -13 12.78125 " clip-rule="nonzero"/></clipPath><clipPath id="adf50819ce"><path d="M 152.625 0.640625 C 218.933594 -4.21875 280.96875 44.070312 283.199219 109.535156 L 296.371094 108.570312 C 332.476562 105.921875 363.820312 132.039062 366.375 166.898438 C 368.925781 201.757812 341.730469 232.167969 305.625 234.8125 L 70.265625 252.0625 C 34.160156 254.707031 2.820312 228.589844 0.261719 193.730469 C -1.757812 166.148438 14.855469 141.359375 39.765625 130.898438 C 30.101562 64.761719 84.925781 5.601562 152.625 0.640625 Z M 152.625 0.640625 " clip-rule="nonzero"/></clipPath><clipPath id="5e49e1d082"><rect x="0" width="367" y="0" height="253"/></clipPath><clipPath id="b1167b3e27"><rect x="0" width="78" y="0" height="296"/></clipPath></defs><g clip-path="url(#eca7a31ac5)"><g clip-path="url(#faa9c62e01)"><g transform="matrix(1, 0, 0, 1, 4, 246)"><g clip-path="url(#fb01d67eaf)"><g clip-path="url(#d00025e2c1)"><g clip-path="url(#37c0891048)"><path fill="#e6f4f1" d="M 0.238281 0.109375 L 375.664062 0.109375 L 375.664062 99.601562 L 0.238281 99.601562 Z M 0.238281 0.109375 " fill-opacity="1" fill-rule="nonzero"/></g></g></g></g></g></g><g clip-path="url(#c8f20fc039)"><g clip-path="url(#beec6b641e)"><g clip-path="url(#9cf7edb787)"><g transform="matrix(1, 0, 0, 1, 13, 39)"><g clip-path="url(#5e49e1d082)"><g clip-path="url(#bec680d3f1)"><g clip-path="url(#c778731da6)"><g clip-path="url(#adf50819ce)"><path fill="#abc4ff" d="M -13 12.78125 L 353.113281 -14.054688 L 371 230.023438 L 4.886719 256.855469 Z M -13 12.78125 " fill-opacity="1" fill-rule="nonzero"/></g></g></g></g></g></g></g></g><g transform="matrix(1, 0, 0, 1, 155, 56)"><g clip-path="url(#b1167b3e27)"><g fill="#f3f9ff" fill-opacity="1"><g transform="translate(3.431665, 192.586054)"><g><path d="M 69.046875 -44.03125 C 69.898438 -44.601562 70.609375 -44.460938 71.171875 -43.609375 C 71.742188 -42.753906 71.601562 -42.039062 70.75 -41.46875 C 70.601562 -41.320312 68.890625 -40.394531 65.609375 -38.6875 C 62.335938 -36.976562 57.140625 -35.125 50.015625 -33.125 C 49.867188 -32.84375 49.796875 -32.488281 49.796875 -32.0625 C 47.953125 -16.957031 42.820312 -6.554688 34.40625 -0.859375 C 31.988281 0.710938 29.460938 1.816406 26.828125 2.453125 C 24.191406 3.097656 21.59375 3.421875 19.03125 3.421875 C 17.175781 3.421875 15.320312 3.273438 13.46875 2.984375 C 11.613281 2.703125 9.90625 2.347656 8.34375 1.921875 L 8.125 1.921875 C 5.414062 1.210938 3.347656 -0.28125 1.921875 -2.5625 C 0.492188 -4.84375 -0.144531 -7.335938 0 -10.046875 C 0.28125 -14.609375 2.738281 -19.023438 7.375 -23.296875 C 12.007812 -27.578125 19.023438 -30.425781 28.421875 -31.84375 L 35.484375 -33.125 L 35.90625 -37.40625 C 36.625 -45.382812 35.203125 -53.363281 31.640625 -61.34375 C 28.078125 -69.320312 24.226562 -77.234375 20.09375 -85.078125 C 16.53125 -91.773438 13.25 -98.253906 10.25 -104.515625 C 7.257812 -110.785156 5.550781 -116.988281 5.125 -123.125 C 4.695312 -129.957031 5.515625 -136.332031 7.578125 -142.25 C 9.648438 -148.164062 12.820312 -152.972656 17.09375 -156.671875 C 22.9375 -161.953125 30.0625 -164.59375 38.46875 -164.59375 C 40.894531 -164.59375 43.25 -164.378906 45.53125 -163.953125 C 54.789062 -162.234375 61.703125 -157.742188 66.265625 -150.484375 C 68.972656 -146.066406 70.539062 -140.972656 70.96875 -135.203125 C 71.394531 -129.429688 70.679688 -123.476562 68.828125 -117.34375 C 68.546875 -116.351562 67.90625 -116 66.90625 -116.28125 C 65.90625 -116.5625 65.546875 -117.203125 65.828125 -118.203125 C 69.390625 -130.316406 68.609375 -140.503906 63.484375 -148.765625 C 59.640625 -155.179688 53.441406 -159.242188 44.890625 -160.953125 C 40.046875 -161.804688 35.054688 -160.238281 29.921875 -156.25 C 26.359375 -153.394531 23.613281 -149.722656 21.6875 -145.234375 C 19.769531 -140.753906 18.8125 -136.019531 18.8125 -131.03125 C 18.8125 -125.039062 20.269531 -118.660156 23.1875 -111.890625 C 26.113281 -105.128906 29.359375 -98.1875 32.921875 -91.0625 C 37.472656 -82.226562 41.601562 -73.25 45.3125 -64.125 C 49.019531 -55 50.660156 -45.804688 50.234375 -36.546875 C 56.785156 -38.398438 61.519531 -40.109375 64.4375 -41.671875 C 67.363281 -43.242188 68.898438 -44.03125 69.046875 -44.03125 Z M 21.796875 -3.421875 C 28.359375 -7.835938 32.78125 -16.601562 35.0625 -29.71875 L 28.859375 -28.859375 C 20.304688 -27.578125 13.960938 -25.046875 9.828125 -21.265625 C 5.703125 -17.492188 3.492188 -13.679688 3.203125 -9.828125 C 2.921875 -5.273438 4.914062 -2.351562 9.1875 -1.0625 C 13.894531 0.0703125 18.097656 -0.710938 21.796875 -3.421875 Z M 21.796875 -3.421875 "/></g></g></g></g></g></svg>