<svg xmlns="http://www.w3.org/2000/svg" xmlns:xlink="http://www.w3.org/1999/xlink" width="350" zoomAndPan="magnify" viewBox="0 0 262.5 74.999997" height="100" preserveAspectRatio="xMidYMid meet" version="1.0"><defs><g/><clipPath id="59ea3c47a8"><path d="M 20 45.921875 L 101.300781 45.921875 L 101.300781 67.441406 L 20 67.441406 Z M 20 45.921875 " clip-rule="nonzero"/></clipPath><clipPath id="4d4877e75f"><path d="M 60.621094 45.921875 C 38.1875 45.921875 20 50.738281 20 56.679688 C 20 62.625 38.1875 67.441406 60.621094 67.441406 C 83.050781 67.441406 101.238281 62.625 101.238281 56.679688 C 101.238281 50.738281 83.050781 45.921875 60.621094 45.921875 Z M 60.621094 45.921875 " clip-rule="nonzero"/></clipPath><clipPath id="893ca6f61d"><path d="M 0 0.921875 L 81.300781 0.921875 L 81.300781 22.441406 L 0 22.441406 Z M 0 0.921875 " clip-rule="nonzero"/></clipPath><clipPath id="fbed0a1304"><path d="M 40.621094 0.921875 C 18.1875 0.921875 0 5.738281 0 11.679688 C 0 17.625 18.1875 22.441406 40.621094 22.441406 C 63.050781 22.441406 81.238281 17.625 81.238281 11.679688 C 81.238281 5.738281 63.050781 0.921875 40.621094 0.921875 Z M 40.621094 0.921875 " clip-rule="nonzero"/></clipPath><clipPath id="11815c3593"><rect x="0" width="82" y="0" height="23"/></clipPath><clipPath id="2e37913a14"><path d="M 21 0.0703125 L 102 0.0703125 L 102 56 L 21 56 Z M 21 0.0703125 " clip-rule="nonzero"/></clipPath><clipPath id="0262e9fc34"><path d="M 18.507812 3.144531 L 98.808594 -2.738281 L 102.734375 50.796875 L 22.429688 56.679688 Z M 18.507812 3.144531 " clip-rule="nonzero"/></clipPath><clipPath id="3dfc784b49"><path d="M 54.835938 0.484375 C 69.378906 -0.582031 82.984375 10.007812 83.476562 24.367188 L 86.363281 24.15625 C 94.285156 23.574219 101.15625 29.304688 101.71875 36.949219 C 102.277344 44.597656 96.3125 51.265625 88.394531 51.847656 L 36.769531 55.628906 C 28.851562 56.210938 21.976562 50.480469 21.414062 42.835938 C 20.972656 36.785156 24.617188 31.347656 30.078125 29.054688 C 27.960938 14.546875 39.984375 1.570312 54.835938 0.484375 Z M 54.835938 0.484375 " clip-rule="nonzero"/></clipPath><clipPath id="36472853a0"><path d="M 0 0.0703125 L 81 0.0703125 L 81 56 L 0 56 Z M 0 0.0703125 " clip-rule="nonzero"/></clipPath><clipPath id="d61cc0ba84"><path d="M -2.492188 3.144531 L 77.808594 -2.738281 L 81.734375 50.796875 L 1.429688 56.679688 Z M -2.492188 3.144531 " clip-rule="nonzero"/></clipPath><clipPath id="f8e7908c28"><path d="M 33.835938 0.484375 C 48.378906 -0.582031 61.984375 10.007812 62.476562 24.367188 L 65.363281 24.15625 C 73.285156 23.574219 80.15625 29.304688 80.71875 36.949219 C 81.277344 44.597656 75.3125 51.265625 67.394531 51.847656 L 15.769531 55.628906 C 7.851562 56.210938 0.976562 50.480469 0.414062 42.835938 C -0.0273438 36.785156 3.617188 31.347656 9.078125 29.054688 C 6.960938 14.546875 18.984375 1.570312 33.835938 0.484375 Z M 33.835938 0.484375 " clip-rule="nonzero"/></clipPath><clipPath id="b49049efff"><rect x="0" width="81" y="0" height="56"/></clipPath><clipPath id="c90454a193"><path d="M 51 2 L 71 2 L 71 74.925781 L 51 74.925781 Z M 51 2 " clip-rule="nonzero"/></clipPath><clipPath id="41a7304b36"><path d="M 1 7 L 19.90625 7 L 19.90625 50 L 1 50 Z M 1 7 " clip-rule="nonzero"/></clipPath><clipPath id="d91c1e43d0"><rect x="0" width="20" y="0" height="73"/></clipPath><clipPath id="848ac04341"><path d="M 81 3 L 126 3 L 126 74.925781 L 81 74.925781 Z M 81 3 " clip-rule="nonzero"/></clipPath><clipPath id="a0c089f6ae"><path d="M 0.445312 7 L 23 7 L 23 56 L 0.445312 56 Z M 0.445312 7 " clip-rule="nonzero"/></clipPath><clipPath id="28f2a58e99"><path d="M 13 26 L 44 26 L 44 71.925781 L 13 71.925781 Z M 13 26 " clip-rule="nonzero"/></clipPath><clipPath id="06c5d4f10a"><rect x="0" width="45" y="0" height="72"/></clipPath><clipPath id="7b6ac53dcb"><path d="M 132 3 L 183 3 L 183 74.925781 L 132 74.925781 Z M 132 3 " clip-rule="nonzero"/></clipPath><clipPath id="8a29d09f2f"><path d="M 0.707031 6 L 29 6 L 29 50 L 0.707031 50 Z M 0.707031 6 " clip-rule="nonzero"/></clipPath><clipPath id="3285db31da"><path d="M 18 26 L 50 26 L 50 71.925781 L 18 71.925781 Z M 18 26 " clip-rule="nonzero"/></clipPath><clipPath id="bab8ed9f49"><rect x="0" width="51" y="0" height="72"/></clipPath><clipPath id="b7820916a2"><path d="M 188 3 L 247 3 L 247 74.925781 L 188 74.925781 Z M 188 3 " clip-rule="nonzero"/></clipPath><clipPath id="aee8577943"><rect x="0" width="59" y="0" height="72"/></clipPath></defs><g clip-path="url(#59ea3c47a8)"><g clip-path="url(#4d4877e75f)"><g transform="matrix(1, 0, 0, 1, 20, 45)"><g clip-path="url(#11815c3593)"><g clip-path="url(#893ca6f61d)"><g clip-path="url(#fbed0a1304)"><path fill="#e6f4f1" d="M 0 0.921875 L 81.214844 0.921875 L 81.214844 22.441406 L 0 22.441406 Z M 0 0.921875 " fill-opacity="1" fill-rule="nonzero"/></g></g></g></g></g></g><g clip-path="url(#2e37913a14)"><g clip-path="url(#0262e9fc34)"><g clip-path="url(#3dfc784b49)"><g transform="matrix(1, 0, 0, 1, 21, 0.000000000000008313)"><g clip-path="url(#b49049efff)"><g clip-path="url(#36472853a0)"><g clip-path="url(#d61cc0ba84)"><g clip-path="url(#f8e7908c28)"><path fill="#abc4ff" d="M -2.492188 3.144531 L 77.808594 -2.738281 L 81.734375 50.796875 L 1.429688 56.679688 Z M -2.492188 3.144531 " fill-opacity="1" fill-rule="nonzero"/></g></g></g></g></g></g></g></g><g clip-path="url(#c90454a193)"><g transform="matrix(1, 0, 0, 1, 51, 2)"><g clip-path="url(#d91c1e43d0)"><g clip-path="url(#41a7304b36)"><g fill="#f3f9ff" fill-opacity="1"><g transform="translate(1.198497, 49.077208)"><g><path d="M 17.328125 -11.046875 C 17.535156 -11.191406 17.710938 -11.15625 17.859375 -10.9375 C 18.003906 -10.726562 17.96875 -10.550781 17.75 -10.40625 C 17.71875 -10.363281 17.289062 -10.128906 16.46875 -9.703125 C 15.644531 -9.273438 14.335938 -8.8125 12.546875 -8.3125 C 12.515625 -8.238281 12.5 -8.148438 12.5 -8.046875 C 12.03125 -4.253906 10.742188 -1.644531 8.640625 -0.21875 C 8.023438 0.175781 7.382812 0.453125 6.71875 0.609375 C 6.0625 0.773438 5.410156 0.859375 4.765625 0.859375 C 4.304688 0.859375 3.84375 0.820312 3.375 0.75 C 2.914062 0.675781 2.488281 0.585938 2.09375 0.484375 L 2.03125 0.484375 C 1.351562 0.304688 0.835938 -0.0664062 0.484375 -0.640625 C 0.128906 -1.210938 -0.03125 -1.835938 0 -2.515625 C 0.0703125 -3.660156 0.6875 -4.769531 1.84375 -5.84375 C 3.007812 -6.914062 4.769531 -7.628906 7.125 -7.984375 L 8.90625 -8.3125 L 9.015625 -9.390625 C 9.191406 -11.390625 8.832031 -13.390625 7.9375 -15.390625 C 7.039062 -17.390625 6.078125 -19.375 5.046875 -21.34375 C 4.148438 -23.019531 3.328125 -24.644531 2.578125 -26.21875 C 1.828125 -27.789062 1.394531 -29.347656 1.28125 -30.890625 C 1.175781 -32.609375 1.382812 -34.207031 1.90625 -35.6875 C 2.425781 -37.164062 3.222656 -38.375 4.296875 -39.3125 C 5.753906 -40.632812 7.539062 -41.296875 9.65625 -41.296875 C 10.257812 -41.296875 10.847656 -41.238281 11.421875 -41.125 C 13.742188 -40.695312 15.476562 -39.570312 16.625 -37.75 C 17.300781 -36.644531 17.691406 -35.367188 17.796875 -33.921875 C 17.910156 -32.472656 17.734375 -30.976562 17.265625 -29.4375 C 17.191406 -29.1875 17.03125 -29.097656 16.78125 -29.171875 C 16.53125 -29.242188 16.441406 -29.40625 16.515625 -29.65625 C 17.410156 -32.695312 17.210938 -35.253906 15.921875 -37.328125 C 14.960938 -38.929688 13.410156 -39.945312 11.265625 -40.375 C 10.046875 -40.59375 8.789062 -40.203125 7.5 -39.203125 C 6.613281 -38.484375 5.925781 -37.5625 5.4375 -36.4375 C 4.957031 -35.3125 4.71875 -34.125 4.71875 -32.875 C 4.71875 -31.375 5.082031 -29.773438 5.8125 -28.078125 C 6.550781 -26.378906 7.367188 -24.632812 8.265625 -22.84375 C 9.398438 -20.625 10.429688 -18.367188 11.359375 -16.078125 C 12.296875 -13.796875 12.710938 -11.492188 12.609375 -9.171875 C 14.242188 -9.628906 15.425781 -10.054688 16.15625 -10.453125 C 16.894531 -10.847656 17.285156 -11.046875 17.328125 -11.046875 Z M 5.46875 -0.859375 C 7.113281 -1.960938 8.222656 -4.160156 8.796875 -7.453125 L 7.234375 -7.234375 C 5.085938 -6.910156 3.492188 -6.273438 2.453125 -5.328125 C 1.421875 -4.390625 0.867188 -3.4375 0.796875 -2.46875 C 0.734375 -1.320312 1.238281 -0.585938 2.3125 -0.265625 C 3.488281 0.015625 4.539062 -0.179688 5.46875 -0.859375 Z M 5.46875 -0.859375 "/></g></g></g></g></g></g></g><g clip-path="url(#848ac04341)"><g transform="matrix(1, 0, 0, 1, 81, 3)"><g clip-path="url(#06c5d4f10a)"><g clip-path="url(#a0c089f6ae)"><g fill="#00305f" fill-opacity="1"><g transform="translate(2.949056, 48.613458)"><g><path d="M 19.25 -11.09375 C 19.5 -11.03125 19.585938 -10.851562 19.515625 -10.5625 C 19.484375 -10.488281 19.304688 -10.078125 18.984375 -9.328125 C 18.660156 -8.578125 18.226562 -7.675781 17.6875 -6.625 C 17.15625 -5.570312 16.539062 -4.535156 15.84375 -3.515625 C 15.144531 -2.492188 14.40625 -1.679688 13.625 -1.078125 C 13.625 -1.035156 13.601562 -1.015625 13.5625 -1.015625 C 13.5625 -1.015625 13.523438 -0.976562 13.453125 -0.90625 C 13.316406 -0.800781 13.148438 -0.703125 12.953125 -0.609375 C 12.753906 -0.523438 12.566406 -0.445312 12.390625 -0.375 C 12.097656 -0.226562 11.738281 -0.15625 11.3125 -0.15625 C 10.738281 -0.15625 10.222656 -0.335938 9.765625 -0.703125 C 9.078125 -1.234375 8.554688 -2.039062 8.203125 -3.125 C 7.847656 -4.21875 7.625 -5.410156 7.53125 -6.703125 C 7.445312 -7.992188 7.457031 -9.207031 7.5625 -10.34375 L 7.5625 -10.515625 L 7.609375 -10.515625 L 7.609375 -10.5625 L 7.671875 -10.625 L 7.71875 -10.625 L 7.71875 -10.671875 L 7.78125 -10.671875 L 7.828125 -10.71875 L 7.890625 -10.71875 C 9.140625 -10.9375 10.207031 -11.597656 11.09375 -12.703125 C 11.988281 -13.816406 12.648438 -14.910156 13.078125 -15.984375 C 13.367188 -16.691406 13.53125 -17.269531 13.5625 -17.71875 C 13.601562 -18.164062 13.585938 -18.425781 13.515625 -18.5 C 13.441406 -18.644531 13.332031 -18.71875 13.1875 -18.71875 C 12.9375 -18.71875 12.707031 -18.59375 12.5 -18.34375 C 11.8125 -17.695312 11.09375 -16.910156 10.34375 -15.984375 C 9.59375 -15.054688 8.828125 -14.019531 8.046875 -12.875 C 6.546875 -10.726562 5.257812 -8.570312 4.1875 -6.40625 C 3.113281 -4.238281 2.378906 -2.316406 1.984375 -0.640625 C 1.804688 0.679688 1.65625 1.847656 1.53125 2.859375 C 1.40625 3.878906 1.304688 4.734375 1.234375 5.421875 C 1.234375 5.773438 1.085938 6.039062 0.796875 6.21875 C 0.546875 6.394531 0.316406 6.484375 0.109375 6.484375 C 0.00390625 6.484375 -0.0664062 6.46875 -0.109375 6.4375 L -0.796875 6.328125 C -1.265625 6.253906 -1.632812 6.03125 -1.90625 5.65625 C -2.175781 5.28125 -2.289062 4.859375 -2.25 4.390625 C -1.539062 -2.210938 -0.578125 -8.296875 0.640625 -13.859375 C 1.859375 -19.421875 3.289062 -24.257812 4.9375 -28.375 C 6.257812 -31.65625 7.660156 -34.359375 9.140625 -36.484375 C 10.628906 -38.617188 12.066406 -39.988281 13.453125 -40.59375 C 14.171875 -40.914062 14.769531 -41.03125 15.25 -40.9375 C 15.738281 -40.851562 16.109375 -40.703125 16.359375 -40.484375 C 16.960938 -40.054688 17.316406 -39.359375 17.421875 -38.390625 C 17.460938 -38.179688 17.484375 -37.957031 17.484375 -37.71875 C 17.484375 -37.488281 17.484375 -37.25 17.484375 -37 L 17.484375 -36.890625 C 17.191406 -34.109375 15.832031 -30.335938 13.40625 -25.578125 C 12.082031 -23.078125 10.578125 -20.546875 8.890625 -17.984375 C 7.210938 -15.429688 5.484375 -13.066406 3.703125 -10.890625 C 3.484375 -9.847656 3.285156 -8.816406 3.109375 -7.796875 C 2.929688 -6.785156 2.753906 -5.8125 2.578125 -4.875 C 3.179688 -6.195312 3.882812 -7.582031 4.6875 -9.03125 C 5.5 -10.476562 6.40625 -11.921875 7.40625 -13.359375 C 8.15625 -14.460938 8.96875 -15.550781 9.84375 -16.625 C 10.71875 -17.695312 11.582031 -18.632812 12.4375 -19.4375 C 13.300781 -20.238281 14.050781 -20.75 14.6875 -20.96875 C 15.007812 -21.070312 15.273438 -21.097656 15.484375 -21.046875 C 15.703125 -20.992188 15.867188 -20.914062 15.984375 -20.8125 C 16.554688 -20.34375 16.867188 -19.546875 16.921875 -18.421875 C 16.972656 -17.296875 16.75 -16.144531 16.25 -14.96875 C 15.207031 -12.457031 13.4375 -10.863281 10.9375 -10.1875 C 10.757812 -7.6875 10.820312 -5.675781 11.125 -4.15625 C 11.425781 -2.632812 11.8125 -1.734375 12.28125 -1.453125 C 12.351562 -1.410156 12.453125 -1.390625 12.578125 -1.390625 C 12.703125 -1.390625 12.867188 -1.476562 13.078125 -1.65625 L 13.140625 -1.65625 C 13.847656 -2.226562 14.539062 -3.015625 15.21875 -4.015625 C 15.90625 -5.015625 16.503906 -6.035156 17.015625 -7.078125 C 17.535156 -8.117188 17.957031 -9.003906 18.28125 -9.734375 C 18.601562 -10.460938 18.765625 -10.847656 18.765625 -10.890625 C 18.835938 -11.097656 19 -11.164062 19.25 -11.09375 Z M 5.09375 -16.78125 L 4.078125 -12.65625 C 5.753906 -14.800781 7.328125 -17.015625 8.796875 -19.296875 C 10.265625 -21.585938 11.566406 -23.84375 12.703125 -26.0625 C 13.847656 -28.28125 14.769531 -30.328125 15.46875 -32.203125 C 16.164062 -34.078125 16.566406 -35.675781 16.671875 -37 C 16.671875 -37.039062 16.644531 -37.328125 16.59375 -37.859375 C 16.539062 -38.390625 16.265625 -38.75 15.765625 -38.9375 C 15.734375 -38.9375 15.695312 -38.941406 15.65625 -38.953125 C 15.625 -38.972656 15.585938 -38.984375 15.546875 -38.984375 C 15.367188 -38.984375 15.175781 -38.929688 14.96875 -38.828125 C 14.320312 -38.460938 13.585938 -37.632812 12.765625 -36.34375 C 11.941406 -35.0625 11.082031 -33.425781 10.1875 -31.4375 C 9.289062 -29.457031 8.40625 -27.21875 7.53125 -24.71875 C 6.65625 -22.21875 5.84375 -19.570312 5.09375 -16.78125 Z M 5.09375 -16.78125 "/></g></g></g></g><g clip-path="url(#28f2a58e99)"><g fill="#00305f" fill-opacity="1"><g transform="translate(21.446823, 48.613458)"><g><path d="M 21.828125 -11.046875 C 22.035156 -10.898438 22.070312 -10.722656 21.9375 -10.515625 C 20.96875 -9.296875 19.738281 -8.09375 18.25 -6.90625 C 16.769531 -5.726562 15.140625 -4.535156 13.359375 -3.328125 C 12.816406 -0.140625 12.1875 2.929688 11.46875 5.890625 C 10.757812 8.859375 9.972656 11.492188 9.109375 13.796875 C 8.253906 16.109375 7.289062 17.910156 6.21875 19.203125 C 5.363281 20.273438 4.523438 21.101562 3.703125 21.6875 C 2.878906 22.28125 2.054688 22.664062 1.234375 22.84375 C 0.835938 22.914062 0.460938 22.976562 0.109375 23.03125 C -0.242188 23.082031 -0.601562 23.109375 -0.96875 23.109375 C -1.925781 23.109375 -2.765625 22.972656 -3.484375 22.703125 C -4.203125 22.441406 -4.8125 22.164062 -5.3125 21.875 C -5.988281 21.414062 -6.53125 20.914062 -6.9375 20.375 C -7.351562 19.84375 -7.597656 19.394531 -7.671875 19.03125 C -7.921875 18.351562 -7.992188 17.601562 -7.890625 16.78125 C -7.597656 14.925781 -6.929688 13.175781 -5.890625 11.53125 C -4.859375 9.882812 -3.5625 8.316406 -2 6.828125 C -0.445312 5.347656 1.242188 3.945312 3.078125 2.625 C 4.921875 1.300781 6.773438 0.03125 8.640625 -1.1875 C 8.953125 -3.007812 9.25 -4.8125 9.53125 -6.59375 C 9.820312 -8.382812 10.0625 -10.101562 10.25 -11.75 C 9.738281 -10.351562 9.097656 -9 8.328125 -7.6875 C 7.566406 -6.382812 6.703125 -5.394531 5.734375 -4.71875 C 5.085938 -4.21875 4.390625 -3.96875 3.640625 -3.96875 C 3.503906 -3.96875 3.375 -3.972656 3.25 -3.984375 C 3.125 -4.003906 2.988281 -4.035156 2.84375 -4.078125 C 1.769531 -4.359375 1 -5 0.53125 -6 C 0.0703125 -7 -0.132812 -8.160156 -0.09375 -9.484375 C -0.0625 -10.804688 0.128906 -12.128906 0.484375 -13.453125 C 0.835938 -14.773438 1.210938 -15.882812 1.609375 -16.78125 C 1.785156 -17.25 2.085938 -17.535156 2.515625 -17.640625 C 2.984375 -17.816406 3.414062 -17.765625 3.8125 -17.484375 L 4.390625 -17.15625 C 4.785156 -16.90625 5.0625 -16.566406 5.21875 -16.140625 C 5.382812 -15.710938 5.378906 -15.285156 5.203125 -14.859375 C 4.554688 -12.992188 4.144531 -11.378906 3.96875 -10.015625 C 3.789062 -8.660156 3.863281 -7.679688 4.1875 -7.078125 C 4.320312 -6.796875 4.550781 -6.597656 4.875 -6.484375 C 5.59375 -6.304688 6.140625 -6.382812 6.515625 -6.71875 C 6.890625 -7.0625 7.09375 -7.253906 7.125 -7.296875 C 7.125 -7.328125 7.144531 -7.34375 7.1875 -7.34375 C 7.863281 -8.3125 8.453125 -9.382812 8.953125 -10.5625 C 9.453125 -11.738281 9.867188 -12.890625 10.203125 -14.015625 C 10.546875 -15.148438 10.773438 -16.054688 10.890625 -16.734375 L 11.15625 -20 C 11.226562 -20.675781 11.601562 -21.160156 12.28125 -21.453125 C 13 -21.703125 13.609375 -21.554688 14.109375 -21.015625 L 14.265625 -20.859375 C 15.160156 -19.859375 15.5 -18.5 15.28125 -16.78125 C 15.03125 -14.8125 14.757812 -12.78125 14.46875 -10.6875 C 14.1875 -8.601562 13.867188 -6.503906 13.515625 -4.390625 C 15.117188 -5.503906 16.597656 -6.601562 17.953125 -7.6875 C 19.316406 -8.78125 20.429688 -9.882812 21.296875 -11 C 21.472656 -11.175781 21.648438 -11.191406 21.828125 -11.046875 Z M 2.890625 17.796875 C 3.640625 16.796875 4.34375 15.363281 5 13.5 C 5.664062 11.644531 6.285156 9.535156 6.859375 7.171875 C 7.429688 4.816406 7.953125 2.390625 8.421875 -0.109375 C 6.054688 1.460938 3.75 3.113281 1.5 4.84375 C -0.75 6.582031 -2.660156 8.441406 -4.234375 10.421875 C -5.804688 12.410156 -6.753906 14.566406 -7.078125 16.890625 C -7.179688 17.535156 -7.144531 18.144531 -6.96875 18.71875 L -6.921875 18.765625 C -6.742188 19.335938 -6.457031 19.785156 -6.0625 20.109375 C -5.09375 21.035156 -3.785156 21.359375 -2.140625 21.078125 C -1.640625 20.960938 -0.890625 20.691406 0.109375 20.265625 C 1.109375 19.835938 2.035156 19.015625 2.890625 17.796875 Z M 2.890625 17.796875 "/></g></g></g></g></g></g></g><g clip-path="url(#7b6ac53dcb)"><g transform="matrix(1, 0, 0, 1, 132, 3)"><g clip-path="url(#bab8ed9f49)"><g clip-path="url(#8a29d09f2f)"><g fill="#00305f" fill-opacity="1"><g transform="translate(0.874186, 48.613458)"><g><path d="M 26.546875 -11 C 26.722656 -11.175781 26.921875 -11.191406 27.140625 -11.046875 C 27.347656 -10.867188 27.347656 -10.671875 27.140625 -10.453125 C 26.453125 -9.671875 25.5625 -9.222656 24.46875 -9.109375 C 23.382812 -9.003906 22.128906 -8.972656 20.703125 -9.015625 C 20.453125 -8.472656 20.15625 -7.941406 19.8125 -7.421875 C 19.476562 -6.910156 19.113281 -6.40625 18.71875 -5.90625 C 17.25 -4.039062 15.617188 -2.519531 13.828125 -1.34375 C 12.046875 -0.164062 10.421875 0.457031 8.953125 0.53125 L 8.640625 0.53125 C 7.597656 0.53125 6.738281 0.265625 6.0625 -0.265625 C 5.382812 -0.804688 4.972656 -1.519531 4.828125 -2.40625 C 4.722656 -3.125 4.828125 -3.859375 5.140625 -4.609375 C 5.140625 -4.648438 5.148438 -4.675781 5.171875 -4.6875 C 5.191406 -4.707031 5.203125 -4.71875 5.203125 -4.71875 C 5.597656 -5.644531 6.3125 -6.53125 7.34375 -7.375 C 8.382812 -8.21875 9.726562 -8.816406 11.375 -9.171875 C 13.195312 -9.523438 14.894531 -9.738281 16.46875 -9.8125 C 17.894531 -11.632812 18.800781 -13.507812 19.1875 -15.4375 C 19.582031 -17.375 19.585938 -19.003906 19.203125 -20.328125 C 18.804688 -21.609375 18.210938 -22.359375 17.421875 -22.578125 C 16.492188 -22.828125 15.566406 -22.851562 14.640625 -22.65625 C 13.710938 -22.457031 12.941406 -22.179688 12.328125 -21.828125 C 12.296875 -21.785156 12.242188 -21.75 12.171875 -21.71875 C 12.097656 -21.6875 12.023438 -21.648438 11.953125 -21.609375 C 11.953125 -21.578125 11.9375 -21.5625 11.90625 -21.5625 L 11.046875 -21.015625 C 10.691406 -20.804688 10.316406 -20.703125 9.921875 -20.703125 C 9.523438 -20.703125 9.164062 -20.804688 8.84375 -21.015625 L 8.09375 -21.453125 C 7.8125 -21.597656 7.707031 -21.8125 7.78125 -22.09375 C 7.78125 -22.375 7.882812 -22.570312 8.09375 -22.6875 C 9.382812 -23.394531 10.679688 -24.375 11.984375 -25.625 C 13.285156 -26.882812 14.421875 -28.226562 15.390625 -29.65625 C 16.429688 -31.226562 17.140625 -32.703125 17.515625 -34.078125 C 17.890625 -35.453125 17.878906 -36.625 17.484375 -37.59375 C 17.335938 -37.945312 17.039062 -38.132812 16.59375 -38.15625 C 16.144531 -38.175781 15.722656 -38.140625 15.328125 -38.046875 C 14.941406 -37.953125 14.726562 -37.890625 14.6875 -37.859375 C 13.613281 -37.140625 12.554688 -36.144531 11.515625 -34.875 C 10.484375 -33.613281 9.507812 -32.222656 8.59375 -30.703125 C 7.6875 -29.179688 6.910156 -27.6875 6.265625 -26.21875 C 5.628906 -24.757812 5.1875 -23.457031 4.9375 -22.3125 L 4.9375 -22.25 C 3.75 -15.5 3.265625 -8.132812 3.484375 -0.15625 C 3.484375 0.269531 3.320312 0.585938 3 0.796875 C 2.820312 0.941406 2.609375 1.015625 2.359375 1.015625 C 2.285156 1.015625 2.210938 1.003906 2.140625 0.984375 C 2.066406 0.972656 2 0.945312 1.9375 0.90625 L 1.5625 0.75 C 0.519531 0.351562 0 -0.429688 0 -1.609375 C 0 -6.929688 0.25 -12.03125 0.75 -16.90625 C 1.25 -21.789062 2 -26.296875 3 -30.421875 C 4 -34.554688 5.195312 -38.144531 6.59375 -41.1875 C 6.769531 -41.582031 7.09375 -41.8125 7.5625 -41.875 C 8.03125 -41.875 8.367188 -41.679688 8.578125 -41.296875 L 9.015625 -40.59375 C 9.617188 -39.59375 9.6875 -38.539062 9.21875 -37.4375 C 7.96875 -34.351562 6.914062 -31.113281 6.0625 -27.71875 C 6.5625 -28.71875 7.097656 -29.71875 7.671875 -30.71875 C 8.242188 -31.726562 8.867188 -32.675781 9.546875 -33.5625 C 10.148438 -34.382812 10.90625 -35.304688 11.8125 -36.328125 C 12.726562 -37.347656 13.734375 -38.207031 14.828125 -38.90625 C 15.921875 -39.601562 17.003906 -39.878906 18.078125 -39.734375 C 19.359375 -39.554688 20.160156 -38.644531 20.484375 -37 C 20.734375 -35.894531 20.675781 -34.554688 20.3125 -32.984375 C 19.957031 -31.410156 19.289062 -29.78125 18.3125 -28.09375 C 17.332031 -26.414062 16.019531 -24.84375 14.375 -23.375 C 14.976562 -23.519531 15.609375 -23.582031 16.265625 -23.5625 C 16.929688 -23.550781 17.601562 -23.398438 18.28125 -23.109375 C 19 -22.859375 19.769531 -22.300781 20.59375 -21.4375 C 21.414062 -20.582031 22.003906 -19.226562 22.359375 -17.375 C 22.785156 -14.976562 22.375 -12.441406 21.125 -9.765625 C 22.375 -9.722656 23.453125 -9.765625 24.359375 -9.890625 C 25.273438 -10.015625 26.003906 -10.382812 26.546875 -11 Z M 15.234375 -8.421875 C 15.304688 -8.492188 15.382812 -8.582031 15.46875 -8.6875 C 15.5625 -8.789062 15.660156 -8.878906 15.765625 -8.953125 C 15.085938 -8.921875 14.398438 -8.859375 13.703125 -8.765625 C 13.003906 -8.679688 12.28125 -8.546875 11.53125 -8.359375 C 10.03125 -8.046875 8.8125 -7.507812 7.875 -6.75 C 6.945312 -6 6.289062 -5.210938 5.90625 -4.390625 C 5.90625 -4.328125 5.882812 -4.0625 5.84375 -3.59375 C 5.8125 -3.125 5.972656 -2.785156 6.328125 -2.578125 C 6.429688 -2.503906 6.648438 -2.46875 6.984375 -2.46875 C 7.328125 -2.46875 7.828125 -2.628906 8.484375 -2.953125 C 9.148438 -3.273438 10.03125 -3.863281 11.125 -4.71875 C 12.21875 -5.570312 13.585938 -6.804688 15.234375 -8.421875 Z M 15.234375 -8.421875 "/></g></g></g></g><g clip-path="url(#3285db31da)"><g fill="#00305f" fill-opacity="1"><g transform="translate(26.985547, 48.613458)"><g><path d="M 21.828125 -11.046875 C 22.035156 -10.898438 22.070312 -10.722656 21.9375 -10.515625 C 20.96875 -9.296875 19.738281 -8.09375 18.25 -6.90625 C 16.769531 -5.726562 15.140625 -4.535156 13.359375 -3.328125 C 12.816406 -0.140625 12.1875 2.929688 11.46875 5.890625 C 10.757812 8.859375 9.972656 11.492188 9.109375 13.796875 C 8.253906 16.109375 7.289062 17.910156 6.21875 19.203125 C 5.363281 20.273438 4.523438 21.101562 3.703125 21.6875 C 2.878906 22.28125 2.054688 22.664062 1.234375 22.84375 C 0.835938 22.914062 0.460938 22.976562 0.109375 23.03125 C -0.242188 23.082031 -0.601562 23.109375 -0.96875 23.109375 C -1.925781 23.109375 -2.765625 22.972656 -3.484375 22.703125 C -4.203125 22.441406 -4.8125 22.164062 -5.3125 21.875 C -5.988281 21.414062 -6.53125 20.914062 -6.9375 20.375 C -7.351562 19.84375 -7.597656 19.394531 -7.671875 19.03125 C -7.921875 18.351562 -7.992188 17.601562 -7.890625 16.78125 C -7.597656 14.925781 -6.929688 13.175781 -5.890625 11.53125 C -4.859375 9.882812 -3.5625 8.316406 -2 6.828125 C -0.445312 5.347656 1.242188 3.945312 3.078125 2.625 C 4.921875 1.300781 6.773438 0.03125 8.640625 -1.1875 C 8.953125 -3.007812 9.25 -4.8125 9.53125 -6.59375 C 9.820312 -8.382812 10.0625 -10.101562 10.25 -11.75 C 9.738281 -10.351562 9.097656 -9 8.328125 -7.6875 C 7.566406 -6.382812 6.703125 -5.394531 5.734375 -4.71875 C 5.085938 -4.21875 4.390625 -3.96875 3.640625 -3.96875 C 3.503906 -3.96875 3.375 -3.972656 3.25 -3.984375 C 3.125 -4.003906 2.988281 -4.035156 2.84375 -4.078125 C 1.769531 -4.359375 1 -5 0.53125 -6 C 0.0703125 -7 -0.132812 -8.160156 -0.09375 -9.484375 C -0.0625 -10.804688 0.128906 -12.128906 0.484375 -13.453125 C 0.835938 -14.773438 1.210938 -15.882812 1.609375 -16.78125 C 1.785156 -17.25 2.085938 -17.535156 2.515625 -17.640625 C 2.984375 -17.816406 3.414062 -17.765625 3.8125 -17.484375 L 4.390625 -17.15625 C 4.785156 -16.90625 5.0625 -16.566406 5.21875 -16.140625 C 5.382812 -15.710938 5.378906 -15.285156 5.203125 -14.859375 C 4.554688 -12.992188 4.144531 -11.378906 3.96875 -10.015625 C 3.789062 -8.660156 3.863281 -7.679688 4.1875 -7.078125 C 4.320312 -6.796875 4.550781 -6.597656 4.875 -6.484375 C 5.59375 -6.304688 6.140625 -6.382812 6.515625 -6.71875 C 6.890625 -7.0625 7.09375 -7.253906 7.125 -7.296875 C 7.125 -7.328125 7.144531 -7.34375 7.1875 -7.34375 C 7.863281 -8.3125 8.453125 -9.382812 8.953125 -10.5625 C 9.453125 -11.738281 9.867188 -12.890625 10.203125 -14.015625 C 10.546875 -15.148438 10.773438 -16.054688 10.890625 -16.734375 L 11.15625 -20 C 11.226562 -20.675781 11.601562 -21.160156 12.28125 -21.453125 C 13 -21.703125 13.609375 -21.554688 14.109375 -21.015625 L 14.265625 -20.859375 C 15.160156 -19.859375 15.5 -18.5 15.28125 -16.78125 C 15.03125 -14.8125 14.757812 -12.78125 14.46875 -10.6875 C 14.1875 -8.601562 13.867188 -6.503906 13.515625 -4.390625 C 15.117188 -5.503906 16.597656 -6.601562 17.953125 -7.6875 C 19.316406 -8.78125 20.429688 -9.882812 21.296875 -11 C 21.472656 -11.175781 21.648438 -11.191406 21.828125 -11.046875 Z M 2.890625 17.796875 C 3.640625 16.796875 4.34375 15.363281 5 13.5 C 5.664062 11.644531 6.285156 9.535156 6.859375 7.171875 C 7.429688 4.816406 7.953125 2.390625 8.421875 -0.109375 C 6.054688 1.460938 3.75 3.113281 1.5 4.84375 C -0.75 6.582031 -2.660156 8.441406 -4.234375 10.421875 C -5.804688 12.410156 -6.753906 14.566406 -7.078125 16.890625 C -7.179688 17.535156 -7.144531 18.144531 -6.96875 18.71875 L -6.921875 18.765625 C -6.742188 19.335938 -6.457031 19.785156 -6.0625 20.109375 C -5.09375 21.035156 -3.785156 21.359375 -2.140625 21.078125 C -1.640625 20.960938 -0.890625 20.691406 0.109375 20.265625 C 1.109375 19.835938 2.035156 19.015625 2.890625 17.796875 Z M 2.890625 17.796875 "/></g></g></g></g></g></g></g><g clip-path="url(#b7820916a2)"><g transform="matrix(1, 0, 0, 1, 188, 3)"><g clip-path="url(#aee8577943)"><g fill="#00305f" fill-opacity="1"><g transform="translate(1.75766, 48.613458)"><g><path d="M 17.328125 -11.046875 C 17.535156 -11.191406 17.710938 -11.15625 17.859375 -10.9375 C 18.003906 -10.726562 17.96875 -10.550781 17.75 -10.40625 C 17.71875 -10.363281 17.289062 -10.128906 16.46875 -9.703125 C 15.644531 -9.273438 14.335938 -8.8125 12.546875 -8.3125 C 12.515625 -8.238281 12.5 -8.148438 12.5 -8.046875 C 12.03125 -4.253906 10.742188 -1.644531 8.640625 -0.21875 C 8.023438 0.175781 7.382812 0.453125 6.71875 0.609375 C 6.0625 0.773438 5.410156 0.859375 4.765625 0.859375 C 4.304688 0.859375 3.84375 0.820312 3.375 0.75 C 2.914062 0.675781 2.488281 0.585938 2.09375 0.484375 L 2.03125 0.484375 C 1.351562 0.304688 0.835938 -0.0664062 0.484375 -0.640625 C 0.128906 -1.210938 -0.03125 -1.835938 0 -2.515625 C 0.0703125 -3.660156 0.6875 -4.769531 1.84375 -5.84375 C 3.007812 -6.914062 4.769531 -7.628906 7.125 -7.984375 L 8.90625 -8.3125 L 9.015625 -9.390625 C 9.191406 -11.390625 8.832031 -13.390625 7.9375 -15.390625 C 7.039062 -17.390625 6.078125 -19.375 5.046875 -21.34375 C 4.148438 -23.019531 3.328125 -24.644531 2.578125 -26.21875 C 1.828125 -27.789062 1.394531 -29.347656 1.28125 -30.890625 C 1.175781 -32.609375 1.382812 -34.207031 1.90625 -35.6875 C 2.425781 -37.164062 3.222656 -38.375 4.296875 -39.3125 C 5.753906 -40.632812 7.539062 -41.296875 9.65625 -41.296875 C 10.257812 -41.296875 10.847656 -41.238281 11.421875 -41.125 C 13.742188 -40.695312 15.476562 -39.570312 16.625 -37.75 C 17.300781 -36.644531 17.691406 -35.367188 17.796875 -33.921875 C 17.910156 -32.472656 17.734375 -30.976562 17.265625 -29.4375 C 17.191406 -29.1875 17.03125 -29.097656 16.78125 -29.171875 C 16.53125 -29.242188 16.441406 -29.40625 16.515625 -29.65625 C 17.410156 -32.695312 17.210938 -35.253906 15.921875 -37.328125 C 14.960938 -38.929688 13.410156 -39.945312 11.265625 -40.375 C 10.046875 -40.59375 8.789062 -40.203125 7.5 -39.203125 C 6.613281 -38.484375 5.925781 -37.5625 5.4375 -36.4375 C 4.957031 -35.3125 4.71875 -34.125 4.71875 -32.875 C 4.71875 -31.375 5.082031 -29.773438 5.8125 -28.078125 C 6.550781 -26.378906 7.367188 -24.632812 8.265625 -22.84375 C 9.398438 -20.625 10.429688 -18.367188 11.359375 -16.078125 C 12.296875 -13.796875 12.710938 -11.492188 12.609375 -9.171875 C 14.242188 -9.628906 15.425781 -10.054688 16.15625 -10.453125 C 16.894531 -10.847656 17.285156 -11.046875 17.328125 -11.046875 Z M 5.46875 -0.859375 C 7.113281 -1.960938 8.222656 -4.160156 8.796875 -7.453125 L 7.234375 -7.234375 C 5.085938 -6.910156 3.492188 -6.273438 2.453125 -5.328125 C 1.421875 -4.390625 0.867188 -3.4375 0.796875 -2.46875 C 0.734375 -1.320312 1.238281 -0.585938 2.3125 -0.265625 C 3.488281 0.015625 4.539062 -0.179688 5.46875 -0.859375 Z M 5.46875 -0.859375 "/></g></g></g><g fill="#00305f" fill-opacity="1"><g transform="translate(18.378847, 48.613458)"><g><path d="M 19.359375 -11 C 19.578125 -11.207031 19.773438 -11.207031 19.953125 -11 C 20.085938 -10.8125 20.066406 -10.628906 19.890625 -10.453125 C 19.609375 -10.171875 19.125 -9.71875 18.4375 -9.09375 C 17.757812 -8.46875 16.960938 -7.769531 16.046875 -7 C 15.140625 -6.226562 14.1875 -5.484375 13.1875 -4.765625 C 12.1875 -4.054688 11.191406 -3.46875 10.203125 -3 C 9.222656 -2.539062 8.34375 -2.3125 7.5625 -2.3125 L 7.40625 -2.3125 C 6.40625 -2.375 5.6875 -2.785156 5.25 -3.546875 C 5.039062 -3.898438 4.898438 -4.34375 4.828125 -4.875 L 4.828125 -4.984375 C 4.753906 -5.804688 4.84375 -6.617188 5.09375 -7.421875 C 5.34375 -8.234375 5.617188 -8.914062 5.921875 -9.46875 C 6.222656 -10.019531 6.394531 -10.3125 6.4375 -10.34375 C 6.582031 -10.59375 6.757812 -10.648438 6.96875 -10.515625 C 7.1875 -10.367188 7.222656 -10.1875 7.078125 -9.96875 C 7.078125 -9.96875 6.941406 -9.695312 6.671875 -9.15625 C 6.410156 -8.625 6.148438 -7.984375 5.890625 -7.234375 C 5.640625 -6.484375 5.535156 -5.753906 5.578125 -5.046875 C 5.609375 -4.929688 5.648438 -4.773438 5.703125 -4.578125 C 5.765625 -4.390625 5.863281 -4.273438 6 -4.234375 C 6.289062 -4.203125 6.722656 -4.453125 7.296875 -4.984375 C 7.867188 -5.523438 8.484375 -6.273438 9.140625 -7.234375 C 9.804688 -8.203125 10.40625 -9.296875 10.9375 -10.515625 C 11.863281 -12.515625 12.378906 -14.265625 12.484375 -15.765625 C 12.597656 -17.265625 12.546875 -18.140625 12.328125 -18.390625 C 12.148438 -18.609375 11.847656 -18.671875 11.421875 -18.578125 C 10.992188 -18.492188 10.632812 -18.359375 10.34375 -18.171875 C 10.34375 -18.140625 10.332031 -18.125 10.3125 -18.125 C 10.300781 -18.125 10.296875 -18.125 10.296875 -18.125 C 9.472656 -17.40625 8.566406 -16.460938 7.578125 -15.296875 C 6.597656 -14.140625 5.710938 -12.890625 4.921875 -11.546875 C 4.140625 -10.210938 3.609375 -8.898438 3.328125 -7.609375 C 2.609375 -4.003906 2 0.109375 1.5 4.734375 C 1 9.367188 0.75 14.226562 0.75 19.3125 C 0.75 19.695312 0.613281 20.039062 0.34375 20.34375 C 0.0820312 20.65625 -0.242188 20.8125 -0.640625 20.8125 C -1.285156 20.8125 -1.84375 20.578125 -2.3125 20.109375 C -2.875 19.460938 -3.15625 18.691406 -3.15625 17.796875 C -3.125 14.941406 -2.984375 11.820312 -2.734375 8.4375 C -2.484375 5.0625 -2.113281 1.640625 -1.625 -1.828125 C -1.144531 -5.296875 -0.539062 -8.628906 0.1875 -11.828125 C 0.914062 -15.023438 1.765625 -17.859375 2.734375 -20.328125 C 2.910156 -20.710938 3.210938 -20.960938 3.640625 -21.078125 C 4.078125 -21.148438 4.4375 -21.003906 4.71875 -20.640625 L 5.3125 -19.890625 C 6.019531 -19.035156 6.179688 -18.085938 5.796875 -17.046875 C 5.546875 -16.367188 5.296875 -15.597656 5.046875 -14.734375 C 4.796875 -13.878906 4.546875 -12.953125 4.296875 -11.953125 C 4.679688 -12.597656 5.097656 -13.25 5.546875 -13.90625 C 5.992188 -14.570312 6.488281 -15.226562 7.03125 -15.875 C 7.414062 -16.375 7.859375 -16.875 8.359375 -17.375 C 8.859375 -17.875 9.34375 -18.320312 9.8125 -18.71875 L 9.921875 -18.828125 C 10.421875 -19.210938 10.882812 -19.53125 11.3125 -19.78125 C 11.738281 -20.03125 12.113281 -20.15625 12.4375 -20.15625 C 13.613281 -20.15625 14.488281 -19.726562 15.0625 -18.875 C 16.320312 -17.15625 16.109375 -14.117188 14.421875 -9.765625 C 13.960938 -8.578125 13.488281 -7.5625 13 -6.71875 C 12.519531 -5.882812 12.046875 -5.203125 11.578125 -4.671875 C 12.828125 -5.453125 14.148438 -6.421875 15.546875 -7.578125 C 16.941406 -8.742188 18.210938 -9.882812 19.359375 -11 Z M 19.359375 -11 "/></g></g></g><g fill="#00305f" fill-opacity="1"><g transform="translate(37.251934, 48.613458)"><g><path d="M 19.46875 -11.09375 C 19.644531 -11.0625 19.769531 -10.90625 19.84375 -10.625 C 19.84375 -10.625 19.753906 -10.253906 19.578125 -9.515625 C 19.398438 -8.785156 19.164062 -7.863281 18.875 -6.75 C 18.59375 -5.644531 18.253906 -4.484375 17.859375 -3.265625 C 16.210938 1.523438 14.566406 3.921875 12.921875 3.921875 L 12.703125 3.921875 C 11.816406 3.804688 11.101562 3.285156 10.5625 2.359375 C 10.09375 1.535156 9.757812 0.535156 9.5625 -0.640625 C 9.375 -1.816406 9.28125 -3.039062 9.28125 -4.3125 C 9.28125 -5.582031 9.316406 -6.738281 9.390625 -7.78125 C 9.140625 -7.09375 8.859375 -6.488281 8.546875 -5.96875 C 8.242188 -5.457031 7.953125 -4.988281 7.671875 -4.5625 C 7.671875 -4.519531 7.660156 -4.5 7.640625 -4.5 C 7.617188 -4.5 7.609375 -4.484375 7.609375 -4.453125 C 7.503906 -4.410156 7.4375 -4.335938 7.40625 -4.234375 C 6.757812 -3.335938 6.101562 -2.703125 5.4375 -2.328125 C 4.78125 -1.953125 4.148438 -1.765625 3.546875 -1.765625 C 3.285156 -1.765625 3.085938 -1.785156 2.953125 -1.828125 C 2.734375 -1.898438 2.382812 -2.039062 1.90625 -2.25 C 1.425781 -2.46875 0.96875 -2.898438 0.53125 -3.546875 C 0.175781 -4.179688 -0.101562 -5.140625 -0.3125 -6.421875 C -0.53125 -7.710938 -0.375 -9.46875 0.15625 -11.6875 C 0.65625 -13.476562 1.253906 -14.890625 1.953125 -15.921875 C 2.648438 -16.960938 3.351562 -17.75 4.0625 -18.28125 C 4.78125 -18.820312 5.394531 -19.179688 5.90625 -19.359375 C 7.039062 -19.785156 8.039062 -19.820312 8.90625 -19.46875 C 9.9375 -18.96875 10.613281 -18.054688 10.9375 -16.734375 L 10.9375 -16.625 C 11.257812 -17.800781 11.617188 -18.890625 12.015625 -19.890625 C 12.410156 -20.890625 12.785156 -21.75 13.140625 -22.46875 C 13.390625 -22.789062 13.691406 -22.96875 14.046875 -23 C 14.472656 -23 14.832031 -22.859375 15.125 -22.578125 L 15.921875 -21.828125 C 16.347656 -21.472656 16.625 -21.039062 16.75 -20.53125 C 16.882812 -20.03125 16.859375 -19.566406 16.671875 -19.140625 C 15.890625 -17.285156 15.1875 -15.1875 14.5625 -12.84375 C 13.9375 -10.5 13.476562 -8.164062 13.1875 -5.84375 C 12.832031 -3.238281 12.734375 -1.351562 12.890625 -0.1875 C 13.054688 0.976562 13.226562 1.613281 13.40625 1.71875 C 13.800781 1.925781 14.148438 1.894531 14.453125 1.625 C 14.753906 1.363281 14.976562 1.160156 15.125 1.015625 C 15.65625 0.0546875 16.171875 -1.109375 16.671875 -2.484375 C 17.171875 -3.867188 17.617188 -5.300781 18.015625 -6.78125 C 18.410156 -8.269531 18.734375 -9.640625 18.984375 -10.890625 C 19.054688 -11.097656 19.21875 -11.164062 19.46875 -11.09375 Z M 10.453125 -14.484375 C 10.453125 -15.234375 10.363281 -15.910156 10.1875 -16.515625 C 10.082031 -16.804688 9.90625 -17.082031 9.65625 -17.34375 C 9.40625 -17.613281 9.132812 -17.765625 8.84375 -17.796875 C 8.59375 -17.835938 8.179688 -17.707031 7.609375 -17.40625 C 7.035156 -17.101562 6.445312 -16.46875 5.84375 -15.5 C 5.238281 -14.53125 4.738281 -13.082031 4.34375 -11.15625 C 3.914062 -9.113281 3.707031 -7.597656 3.71875 -6.609375 C 3.738281 -5.628906 3.863281 -4.988281 4.09375 -4.6875 C 4.332031 -4.382812 4.523438 -4.179688 4.671875 -4.078125 C 4.878906 -3.929688 5.207031 -3.898438 5.65625 -3.984375 C 6.101562 -4.078125 6.539062 -4.410156 6.96875 -4.984375 C 7.96875 -6.410156 8.929688 -8.484375 9.859375 -11.203125 C 9.929688 -11.773438 10.015625 -12.328125 10.109375 -12.859375 C 10.203125 -13.398438 10.316406 -13.941406 10.453125 -14.484375 Z M 10.453125 -14.484375 "/></g></g></g></g></g></g></svg>